<?xml version="1.0" encoding="utf-8"?>
<!-- Generator: Adobe Illustrator 21.0.0, SVG Export Plug-In . SVG Version: 6.00 Build 0)  -->
<svg version="1.1" id="Layer_1" xmlns="http://www.w3.org/2000/svg" xmlns:xlink="http://www.w3.org/1999/xlink" x="0px" y="0px"
	 viewBox="0 0 507 120" style="enable-background:new 0 0 507 120;" xml:space="preserve">
<style type="text/css">
	.st0{display:none;fill:#00C3F7;stroke:#000000;stroke-miterlimit:10;}
	.st1{display:none;}
	.st2{display:inline;}
</style>
<rect x="-96" y="-104.5" class="st0" width="925.5" height="565.5"/>
<g class="st1">
	<path class="st2" d="M266,104.9V92.6h4.2c3.2,0,4.5,1.3,4.5,3.3c0,1.1-0.7,2.2-2.2,2.7c1.7,0.4,2.5,1.3,2.5,2.7
		c0,2.1-1.6,3.6-4.5,3.6H266z M268.3,97.9h1.8c1.6,0,2.4-0.5,2.4-1.8c0-1.3-0.7-1.8-2.2-1.8h-2V97.9z M268.3,99.5v3.6h2.3
		c1.7,0,2.2-0.9,2.2-1.9c0-1.1-0.7-1.7-2.3-1.7H268.3z"/>
	<path class="st2" d="M279.5,100v4.8h-2.3V92.6h3.7c3.4,0,4.7,1.5,4.7,3.5c0,1.7-1,3-2.7,3.5c0.3,0.2,0.5,0.4,0.7,0.7l3.1,4.5h-2.1
		c-0.4,0-0.7-0.2-0.9-0.5l-2.6-3.9c-0.2-0.3-0.4-0.4-0.8-0.4H279.5z M279.5,98.4h1.4c1.7,0,2.5-0.9,2.5-2.1c0-1.2-0.8-1.9-2.5-1.9
		h-1.5V98.4z"/>
	<path class="st2" d="M290.8,104.9h-2.3V92.6h2.3V104.9z"/>
	<path class="st2" d="M295.6,92.9l6.5,8.2c0-0.4-0.1-0.8-0.1-1.1v-7.5h2v12.3h-1.2c-0.4,0-0.6-0.1-0.8-0.4l-6.4-8.2
		c0,0.4,0.1,0.7,0.1,1v7.5h-2V92.6h1.2C295.2,92.6,295.3,92.6,295.6,92.9z"/>
	<path class="st2" d="M314.5,102.6v-2.2H313c-0.3,0-0.5-0.2-0.5-0.4v-1.3h4.1v5c-1.2,0.9-2.7,1.3-4.7,1.3c-3.6,0-6.2-2.6-6.2-6.3
		c0-3.7,2.5-6.3,6.4-6.3c2,0,3.5,0.7,4.5,1.6l-0.7,1c-0.1,0.2-0.3,0.3-0.5,0.3c-0.1,0-0.3,0-0.4-0.1c-0.7-0.4-1.4-0.9-2.9-0.9
		c-2.4,0-4,1.7-4,4.3c0,2.8,1.7,4.5,4,4.5C313.1,103.2,313.8,103,314.5,102.6z"/>
	<path class="st2" d="M328.1,100.1v4.8h-2.3v-4.8l-4.5-7.5h2c0.4,0,0.6,0.2,0.8,0.5l2.3,4.1c0.3,0.5,0.4,0.9,0.6,1.3
		c0.1-0.4,0.3-0.9,0.6-1.3l2.2-4.1c0.1-0.2,0.4-0.5,0.8-0.5h2L328.1,100.1z"/>
	<path class="st2" d="M338.7,105c-3.7,0-6.2-2.7-6.2-6.3c0-3.6,2.5-6.3,6.2-6.3c3.7,0,6.2,2.7,6.2,6.3
		C344.9,102.3,342.4,105,338.7,105z M338.7,94.4c-2.4,0-3.9,1.6-3.9,4.3c0,2.7,1.5,4.3,3.9,4.3s3.9-1.6,3.9-4.3
		C342.6,96,341.1,94.4,338.7,94.4z"/>
	<path class="st2" d="M354.5,99.9v-7.4h2.3v7.4c0,2.9-1.9,5.1-5.1,5.1s-5.1-2.1-5.1-5.1v-7.4h2.3v7.4c0,1.9,1,3.1,2.8,3.1
		S354.5,101.8,354.5,99.9z"/>
	<path class="st2" d="M361.4,100v4.8h-2.3V92.6h3.7c3.4,0,4.7,1.5,4.7,3.5c0,1.7-1,3-2.7,3.5c0.3,0.2,0.5,0.4,0.7,0.7l3.1,4.5h-2.1
		c-0.4,0-0.7-0.2-0.9-0.5l-2.6-3.9c-0.2-0.3-0.4-0.4-0.8-0.4H361.4z M361.4,98.4h1.4c1.7,0,2.5-0.9,2.5-2.1c0-1.2-0.8-1.9-2.5-1.9
		h-1.5V98.4z"/>
	<path class="st2" d="M379.7,105c-3.7,0-6.2-2.7-6.2-6.3c0-3.6,2.5-6.3,6.2-6.3c3.7,0,6.2,2.7,6.2,6.3
		C385.9,102.3,383.4,105,379.7,105z M379.7,94.4c-2.4,0-3.9,1.6-3.9,4.3c0,2.7,1.5,4.3,3.9,4.3s3.9-1.6,3.9-4.3
		C383.6,96,382.1,94.4,379.7,94.4z"/>
	<path class="st2" d="M386.6,92.6h1.9c0.4,0,0.7,0.2,0.8,0.5l2.1,7.4c0.1,0.4,0.2,0.8,0.3,1.3c0.1-0.5,0.2-0.9,0.3-1.3l2.4-7.4
		c0.1-0.3,0.4-0.5,0.8-0.5h0.7c0.4,0,0.7,0.2,0.8,0.5l2.4,7.4c0.1,0.4,0.2,0.8,0.3,1.2c0.1-0.4,0.2-0.9,0.3-1.2l2.1-7.4
		c0.1-0.3,0.4-0.5,0.8-0.5h1.8l-3.8,12.3h-2.1l-2.7-8.4c-0.1-0.2-0.1-0.5-0.2-0.7c-0.1,0.3-0.1,0.5-0.2,0.7l-2.7,8.4h-2.1
		L386.6,92.6z"/>
	<path class="st2" d="M407.5,92.9l6.5,8.2c0-0.4-0.1-0.8-0.1-1.1v-7.5h2v12.3h-1.2c-0.4,0-0.6-0.1-0.8-0.4l-6.4-8.2
		c0,0.4,0.1,0.7,0.1,1v7.5h-2V92.6h1.2C407.1,92.6,407.2,92.6,407.5,92.9z"/>
	<path class="st2" d="M422.3,104.9V92.6h4.2c3.2,0,4.5,1.3,4.5,3.3c0,1.1-0.7,2.2-2.2,2.7c1.7,0.4,2.5,1.3,2.5,2.7
		c0,2.1-1.6,3.6-4.5,3.6H422.3z M424.6,97.9h1.8c1.6,0,2.4-0.5,2.4-1.8c0-1.3-0.7-1.8-2.2-1.8h-2V97.9z M424.6,99.5v3.6h2.3
		c1.7,0,2.2-0.9,2.2-1.9c0-1.1-0.7-1.7-2.3-1.7H424.6z"/>
	<path class="st2" d="M441.2,99.9v-7.4h2.3v7.4c0,2.9-1.9,5.1-5.1,5.1s-5.1-2.1-5.1-5.1v-7.4h2.3v7.4c0,1.9,1,3.1,2.8,3.1
		S441.2,101.8,441.2,99.9z"/>
	<path class="st2" d="M452.4,94.8c-0.1,0.2-0.3,0.3-0.5,0.3c-0.5,0-1.1-0.9-2.5-0.9c-1.3,0-1.9,0.6-1.9,1.5c0,2.3,5.7,1.1,5.7,5.2
		c0,2.2-1.6,4-4.3,4c-1.6,0-3.1-0.6-4-1.6l0.7-1.1c0.1-0.2,0.3-0.3,0.5-0.3c0.6,0,1.2,1.1,2.9,1.1c1.3,0,2-0.6,2-1.8
		c0-2.6-5.7-0.9-5.7-5.4c0-1.8,1.5-3.5,4-3.5c1.5,0,2.7,0.5,3.6,1.3L452.4,94.8z"/>
	<path class="st2" d="M457.5,104.9h-2.3V92.6h2.3V104.9z"/>
	<path class="st2" d="M462.2,92.9l6.5,8.2c0-0.4-0.1-0.8-0.1-1.1v-7.5h2v12.3h-1.2c-0.4,0-0.6-0.1-0.8-0.4l-6.4-8.2
		c0,0.4,0.1,0.7,0.1,1v7.5h-2V92.6h1.2C461.8,92.6,461.9,92.6,462.2,92.9z"/>
	<path class="st2" d="M480.8,92.6v1.8h-5.4v3.4h4.3v1.8h-4.3v3.5h5.4v1.8h-7.8V92.6H480.8z"/>
	<path class="st2" d="M489.4,94.8c-0.1,0.2-0.3,0.3-0.5,0.3c-0.5,0-1.1-0.9-2.5-0.9c-1.3,0-1.9,0.6-1.9,1.5c0,2.3,5.7,1.1,5.7,5.2
		c0,2.2-1.6,4-4.3,4c-1.6,0-3.1-0.6-4-1.6l0.7-1.1c0.1-0.2,0.3-0.3,0.5-0.3c0.6,0,1.2,1.1,2.9,1.1c1.3,0,2-0.6,2-1.8
		c0-2.6-5.7-0.9-5.7-5.4c0-1.8,1.5-3.5,4-3.5c1.5,0,2.7,0.5,3.6,1.3L489.4,94.8z"/>
	<path class="st2" d="M498.5,94.8c-0.1,0.2-0.3,0.3-0.5,0.3c-0.5,0-1.1-0.9-2.5-0.9c-1.3,0-1.9,0.6-1.9,1.5c0,2.3,5.7,1.1,5.7,5.2
		c0,2.2-1.6,4-4.3,4c-1.6,0-3.1-0.6-4-1.6l0.7-1.1c0.1-0.2,0.3-0.3,0.5-0.3c0.6,0,1.2,1.1,2.9,1.1c1.3,0,2-0.6,2-1.8
		c0-2.6-5.7-0.9-5.7-5.4c0-1.8,1.5-3.5,4-3.5c1.5,0,2.7,0.5,3.6,1.3L498.5,94.8z"/>
</g>
<g>
	<path d="M90.9,73.7c4,2.4,9.8,4.5,15.9,4.5c9.1,0,14.4-4.8,14.4-11.7c0-6.4-3.7-10.1-12.9-13.6c-11.2-4-18.1-9.8-18.1-19.4
		c0-10.7,8.9-18.6,22.2-18.6c7,0,12.1,1.6,15.2,3.4l-2.4,7.2c-2.2-1.2-6.8-3.3-13-3.3c-9.4,0-12.9,5.6-12.9,10.3
		c0,6.4,4.2,9.6,13.6,13.2c11.6,4.5,17.5,10.1,17.5,20.2c0,10.6-7.8,19.7-24,19.7c-6.6,0-13.8-1.9-17.5-4.4L90.9,73.7z"/>
	<path d="M152,21.4c0.1,3.1-2.1,5.5-5.7,5.5c-3.2,0-5.4-2.4-5.4-5.5c0-3.2,2.3-5.6,5.6-5.6C149.9,15.8,152,18.2,152,21.4z M142,84.5
		V35.2h9v49.3H142z"/>
	<path d="M165.9,48.6c0-5.1-0.1-9.3-0.4-13.3h7.8l0.4,7.9h0.3c2.7-4.7,7.3-9.1,15.5-9.1c6.7,0,11.8,4.1,13.9,9.9h0.2
		c1.5-2.7,3.5-4.9,5.5-6.4c3-2.2,6.2-3.5,10.9-3.5c6.5,0,16.2,4.3,16.2,21.4v29h-8.8V56.6c0-9.5-3.5-15.2-10.7-15.2
		c-5.1,0-9.1,3.8-10.6,8.1c-0.4,1.2-0.7,2.8-0.7,4.5v30.4h-8.8V55c0-7.8-3.5-13.5-10.3-13.5c-5.6,0-9.7,4.5-11.1,9
		c-0.5,1.3-0.7,2.9-0.7,4.4v29.7h-8.8V48.6z"/>
	<path d="M250.7,51.3c0-6.3-0.2-11.4-0.4-16.1h8l0.4,8.4h0.2c3.7-6,9.5-9.6,17.5-9.6c11.9,0,20.9,10.1,20.9,25
		c0,17.7-10.8,26.5-22.4,26.5c-6.5,0-12.2-2.8-15.2-7.7h-0.2v26.8h-8.9V51.3z M259.6,64.4c0,1.3,0.2,2.5,0.4,3.7
		c1.6,6.2,7,10.5,13.4,10.5c9.5,0,15-7.7,15-19c0-9.9-5.2-18.3-14.7-18.3c-6.1,0-11.8,4.4-13.5,11.1c-0.3,1.1-0.6,2.4-0.6,3.7V64.4z
		"/>
	<path d="M308.6,12.2h9v72.3h-9V12.2z"/>
	<path d="M342.6,21.4c0.1,3.1-2.1,5.5-5.7,5.5c-3.2,0-5.4-2.4-5.4-5.5c0-3.2,2.3-5.6,5.6-5.6C340.5,15.8,342.6,18.2,342.6,21.4z
		 M332.7,84.5V35.2h9v49.3H332.7z"/>
	<path d="M391.6,82.7c-2.3,1.2-7.5,2.8-14.1,2.8c-14.9,0-24.5-10.1-24.5-25.1c0-15.2,10.4-26.2,26.5-26.2c5.3,0,10,1.3,12.4,2.5
		l-2,6.9c-2.1-1.2-5.5-2.3-10.4-2.3c-11.3,0-17.4,8.3-17.4,18.6c0,11.4,7.3,18.4,17.1,18.4c5.1,0,8.4-1.3,11-2.4L391.6,82.7z"/>
	<path d="M412,21.4c0.1,3.1-2.1,5.5-5.7,5.5c-3.2,0-5.4-2.4-5.4-5.5c0-3.2,2.3-5.6,5.6-5.6C409.9,15.8,412,18.2,412,21.4z
		 M402.1,84.5V35.2h9v49.3H402.1z"/>
	<path d="M436.7,21.1v14.1h12.8V42h-12.8v26.6c0,6.1,1.7,9.6,6.7,9.6c2.3,0,4.1-0.3,5.2-0.6l0.4,6.7c-1.7,0.7-4.5,1.2-7.9,1.2
		c-4.2,0-7.5-1.3-9.7-3.8c-2.5-2.6-3.5-7-3.5-12.8V42h-7.6v-6.8h7.6V23.4L436.7,21.1z"/>
	<path d="M464,61.5c0.2,12.1,7.9,17.1,16.9,17.1c6.4,0,10.3-1.1,13.6-2.5l1.5,6.4c-3.2,1.4-8.6,3.1-16.4,3.1
		c-15.2,0-24.2-10-24.2-24.8c0-14.9,8.8-26.6,23.1-26.6c16.1,0,20.4,14.1,20.4,23.2c0,1.8-0.2,3.3-0.3,4.2H464z M490.2,55.1
		c0.1-5.7-2.3-14.6-12.4-14.6c-9.1,0-13,8.3-13.7,14.6H490.2z M492.4,14l-12.4,14.6h-6.4l9-14.6H492.4z"/>
</g>
<g id="Nuage">
	<path d="M13.4,53.4c0.9,0,1.7,0.1,2.5,0.3c1.9-5.2,6.8-8.9,12.7-8.9c2,0,3.9,0.4,5.6,1.2c1.3-7.3,7.6-12.8,15.2-12.8
		c7.3,0,13.4,5.1,15,11.8c3.6,0.2,7,1.6,9.7,3.7V21.5c0-3.7-3.1-6.7-6.8-6.7H10.9c-3.8,0-6.8,3-6.8,6.7v36.7
		C6.2,55.3,9.5,53.4,13.4,53.4z"/>
	<path d="M73.9,77.9v-4.1H4.2v4.1h0c0,0,0,0.1,0,0.1l0,0h0c0.6,3.1,3.4,5.5,6.7,5.5h56.2C70.6,83.5,73.4,81.1,73.9,77.9L73.9,77.9z"
		/>
</g>
<g>
</g>
<g>
</g>
<g>
</g>
<g>
</g>
<g>
</g>
<g>
</g>
</svg>
